<mxfile host="app.diagrams.net" modified="2024-07-08T11:39:20.889Z" agent="Mozilla/5.0 (Macintosh; Intel Mac OS X 10_15_7) AppleWebKit/537.36 (KHTML, like Gecko) Chrome/126.0.0.0 Safari/537.36" etag="wdEQYGEbSF0LnMfT18Bk" version="24.6.4" type="github">
  <diagram name="Страница — 1" id="2vbxExY6Asv2gLQXwFZR">
    <mxGraphModel dx="2927" dy="2389" grid="1" gridSize="10" guides="1" tooltips="1" connect="1" arrows="1" fold="1" page="1" pageScale="1" pageWidth="827" pageHeight="1169" math="0" shadow="0">
      <root>
        <mxCell id="0" />
        <mxCell id="1" parent="0" />
        <mxCell id="SG0_FYimi-TdN1ou-3Z8-1" value="Root&lt;div&gt;Priority Selector&lt;/div&gt;" style="rounded=0;whiteSpace=wrap;html=1;" parent="1" vertex="1">
          <mxGeometry x="320" y="80" width="120" height="60" as="geometry" />
        </mxCell>
        <mxCell id="SG0_FYimi-TdN1ou-3Z8-24" value="Roam&lt;div&gt;Sequence&lt;/div&gt;" style="rounded=0;whiteSpace=wrap;html=1;" parent="1" vertex="1">
          <mxGeometry x="315" y="200" width="120" height="60" as="geometry" />
        </mxCell>
        <mxCell id="SG0_FYimi-TdN1ou-3Z8-25" value="Roam position != 0&lt;div&gt;Condition&lt;/div&gt;" style="ellipse;whiteSpace=wrap;html=1;" parent="1" vertex="1">
          <mxGeometry x="195" y="300" width="120" height="80" as="geometry" />
        </mxCell>
        <mxCell id="SG0_FYimi-TdN1ou-3Z8-26" value="Move to roam position&lt;div&gt;Node&lt;/div&gt;" style="rounded=0;whiteSpace=wrap;html=1;" parent="1" vertex="1">
          <mxGeometry x="445" y="310" width="120" height="60" as="geometry" />
        </mxCell>
        <mxCell id="SG0_FYimi-TdN1ou-3Z8-27" value="" style="endArrow=classic;html=1;rounded=0;exitX=0.5;exitY=1;exitDx=0;exitDy=0;entryX=0.5;entryY=0;entryDx=0;entryDy=0;" parent="1" source="SG0_FYimi-TdN1ou-3Z8-24" target="SG0_FYimi-TdN1ou-3Z8-25" edge="1">
          <mxGeometry width="50" height="50" relative="1" as="geometry">
            <mxPoint x="265" y="430" as="sourcePoint" />
            <mxPoint x="315" y="380" as="targetPoint" />
            <Array as="points">
              <mxPoint x="375" y="280" />
              <mxPoint x="255" y="280" />
            </Array>
          </mxGeometry>
        </mxCell>
        <mxCell id="SG0_FYimi-TdN1ou-3Z8-28" value="" style="endArrow=classic;html=1;rounded=0;exitX=0.5;exitY=1;exitDx=0;exitDy=0;entryX=0.5;entryY=0;entryDx=0;entryDy=0;" parent="1" source="SG0_FYimi-TdN1ou-3Z8-24" target="SG0_FYimi-TdN1ou-3Z8-26" edge="1">
          <mxGeometry width="50" height="50" relative="1" as="geometry">
            <mxPoint x="335" y="420" as="sourcePoint" />
            <mxPoint x="385" y="370" as="targetPoint" />
            <Array as="points">
              <mxPoint x="375" y="280" />
              <mxPoint x="505" y="280" />
            </Array>
          </mxGeometry>
        </mxCell>
        <mxCell id="SG0_FYimi-TdN1ou-3Z8-30" value="Base Enemy&lt;div&gt;BT&lt;/div&gt;" style="rounded=0;whiteSpace=wrap;html=1;" parent="1" vertex="1">
          <mxGeometry x="320" y="-10" width="120" height="60" as="geometry" />
        </mxCell>
        <mxCell id="SG0_FYimi-TdN1ou-3Z8-31" value="" style="endArrow=classic;html=1;rounded=0;exitX=0.5;exitY=1;exitDx=0;exitDy=0;entryX=0.5;entryY=0;entryDx=0;entryDy=0;" parent="1" source="SG0_FYimi-TdN1ou-3Z8-30" target="SG0_FYimi-TdN1ou-3Z8-1" edge="1">
          <mxGeometry width="50" height="50" relative="1" as="geometry">
            <mxPoint x="340" y="280" as="sourcePoint" />
            <mxPoint x="390" y="230" as="targetPoint" />
          </mxGeometry>
        </mxCell>
        <mxCell id="SG0_FYimi-TdN1ou-3Z8-34" value="&lt;div&gt;Idle&lt;/div&gt;&lt;div&gt;Node&lt;/div&gt;" style="rounded=0;whiteSpace=wrap;html=1;" parent="1" vertex="1">
          <mxGeometry x="740" y="200" width="120" height="60" as="geometry" />
        </mxCell>
        <mxCell id="SG0_FYimi-TdN1ou-3Z8-37" value="" style="endArrow=classic;html=1;rounded=0;entryX=0.5;entryY=0;entryDx=0;entryDy=0;" parent="1" target="SG0_FYimi-TdN1ou-3Z8-34" edge="1">
          <mxGeometry width="50" height="50" relative="1" as="geometry">
            <mxPoint x="380" y="140" as="sourcePoint" />
            <mxPoint x="1140" y="200" as="targetPoint" />
            <Array as="points">
              <mxPoint x="380" y="170" />
              <mxPoint x="800" y="170" />
            </Array>
          </mxGeometry>
        </mxCell>
        <mxCell id="SG0_FYimi-TdN1ou-3Z8-38" value="&lt;div&gt;Roam time expired&lt;/div&gt;&lt;div&gt;Condition&lt;/div&gt;" style="ellipse;whiteSpace=wrap;html=1;" parent="1" vertex="1">
          <mxGeometry x="315" y="330" width="120" height="90" as="geometry" />
        </mxCell>
        <mxCell id="SG0_FYimi-TdN1ou-3Z8-39" value="" style="endArrow=classic;html=1;rounded=0;exitX=0.5;exitY=1;exitDx=0;exitDy=0;entryX=0.5;entryY=0;entryDx=0;entryDy=0;" parent="1" source="SG0_FYimi-TdN1ou-3Z8-24" target="SG0_FYimi-TdN1ou-3Z8-42" edge="1">
          <mxGeometry width="50" height="50" relative="1" as="geometry">
            <mxPoint x="355" y="400" as="sourcePoint" />
            <mxPoint x="395" y="300" as="targetPoint" />
          </mxGeometry>
        </mxCell>
        <mxCell id="SG0_FYimi-TdN1ou-3Z8-42" value="Invertor" style="rhombus;whiteSpace=wrap;html=1;" parent="1" vertex="1">
          <mxGeometry x="345" y="300" width="60" height="60" as="geometry" />
        </mxCell>
        <mxCell id="SG0_FYimi-TdN1ou-3Z8-43" value="Combat&lt;div&gt;Selector&lt;/div&gt;" style="rounded=0;whiteSpace=wrap;html=1;" parent="1" vertex="1">
          <mxGeometry x="-60" y="310" width="120" height="60" as="geometry" />
        </mxCell>
        <mxCell id="SG0_FYimi-TdN1ou-3Z8-44" value="Attack&lt;div&gt;Sequence&lt;/div&gt;" style="rounded=0;whiteSpace=wrap;html=1;" parent="1" vertex="1">
          <mxGeometry x="-305" y="460" width="120" height="60" as="geometry" />
        </mxCell>
        <mxCell id="SG0_FYimi-TdN1ou-3Z8-47" value="Target in attack range&lt;div&gt;Condition&lt;/div&gt;" style="ellipse;whiteSpace=wrap;html=1;" parent="1" vertex="1">
          <mxGeometry x="-425" y="560" width="120" height="80" as="geometry" />
        </mxCell>
        <mxCell id="SG0_FYimi-TdN1ou-3Z8-48" value="" style="endArrow=classic;html=1;rounded=0;entryX=0.5;entryY=0;entryDx=0;entryDy=0;exitX=0.5;exitY=1;exitDx=0;exitDy=0;" parent="1" source="SG0_FYimi-TdN1ou-3Z8-44" target="SG0_FYimi-TdN1ou-3Z8-47" edge="1">
          <mxGeometry width="50" height="50" relative="1" as="geometry">
            <mxPoint x="-305" y="540" as="sourcePoint" />
            <mxPoint x="-155" y="580" as="targetPoint" />
            <Array as="points">
              <mxPoint x="-245" y="540" />
              <mxPoint x="-365" y="540" />
            </Array>
          </mxGeometry>
        </mxCell>
        <mxCell id="SG0_FYimi-TdN1ou-3Z8-49" value="Attack off cooldown&lt;div&gt;Condition&lt;/div&gt;" style="ellipse;whiteSpace=wrap;html=1;" parent="1" vertex="1">
          <mxGeometry x="-290" y="560" width="120" height="80" as="geometry" />
        </mxCell>
        <mxCell id="SG0_FYimi-TdN1ou-3Z8-50" value="" style="endArrow=classic;html=1;rounded=0;entryX=0.5;entryY=0;entryDx=0;entryDy=0;" parent="1" target="SG0_FYimi-TdN1ou-3Z8-49" edge="1">
          <mxGeometry width="50" height="50" relative="1" as="geometry">
            <mxPoint x="-245" y="520" as="sourcePoint" />
            <mxPoint x="-155" y="580" as="targetPoint" />
            <Array as="points">
              <mxPoint x="-245" y="540" />
              <mxPoint x="-230" y="540" />
            </Array>
          </mxGeometry>
        </mxCell>
        <mxCell id="SG0_FYimi-TdN1ou-3Z8-51" value="Attack&lt;div&gt;Node&lt;/div&gt;" style="rounded=0;whiteSpace=wrap;html=1;" parent="1" vertex="1">
          <mxGeometry x="-150" y="570" width="120" height="60" as="geometry" />
        </mxCell>
        <mxCell id="SG0_FYimi-TdN1ou-3Z8-52" value="" style="endArrow=classic;html=1;rounded=0;exitX=0.5;exitY=1;exitDx=0;exitDy=0;entryX=0.5;entryY=0;entryDx=0;entryDy=0;" parent="1" source="SG0_FYimi-TdN1ou-3Z8-44" target="SG0_FYimi-TdN1ou-3Z8-51" edge="1">
          <mxGeometry width="50" height="50" relative="1" as="geometry">
            <mxPoint x="-75" y="620" as="sourcePoint" />
            <mxPoint x="-25" y="570" as="targetPoint" />
            <Array as="points">
              <mxPoint x="-245" y="540" />
              <mxPoint x="-90" y="540" />
            </Array>
          </mxGeometry>
        </mxCell>
        <mxCell id="SG0_FYimi-TdN1ou-3Z8-53" value="Chase&lt;div&gt;Sequence&lt;/div&gt;" style="rounded=0;whiteSpace=wrap;html=1;" parent="1" vertex="1">
          <mxGeometry x="40" y="460" width="120" height="60" as="geometry" />
        </mxCell>
        <mxCell id="SG0_FYimi-TdN1ou-3Z8-55" value="Target in chase range&lt;div&gt;Condition&lt;/div&gt;" style="ellipse;whiteSpace=wrap;html=1;" parent="1" vertex="1">
          <mxGeometry x="-10" y="560" width="120" height="80" as="geometry" />
        </mxCell>
        <mxCell id="SG0_FYimi-TdN1ou-3Z8-56" value="Chase&lt;div&gt;Node&lt;/div&gt;" style="rounded=0;whiteSpace=wrap;html=1;" parent="1" vertex="1">
          <mxGeometry x="130" y="570" width="120" height="60" as="geometry" />
        </mxCell>
        <mxCell id="SG0_FYimi-TdN1ou-3Z8-58" value="" style="endArrow=classic;html=1;rounded=0;exitX=0.5;exitY=1;exitDx=0;exitDy=0;entryX=0.5;entryY=0;entryDx=0;entryDy=0;" parent="1" source="SG0_FYimi-TdN1ou-3Z8-53" target="SG0_FYimi-TdN1ou-3Z8-55" edge="1">
          <mxGeometry width="50" height="50" relative="1" as="geometry">
            <mxPoint x="50" y="610" as="sourcePoint" />
            <mxPoint x="100" y="560" as="targetPoint" />
            <Array as="points">
              <mxPoint x="100" y="540" />
              <mxPoint x="50" y="540" />
            </Array>
          </mxGeometry>
        </mxCell>
        <mxCell id="SG0_FYimi-TdN1ou-3Z8-59" value="" style="endArrow=classic;html=1;rounded=0;exitX=0.5;exitY=1;exitDx=0;exitDy=0;entryX=0.5;entryY=0;entryDx=0;entryDy=0;" parent="1" source="SG0_FYimi-TdN1ou-3Z8-53" target="SG0_FYimi-TdN1ou-3Z8-56" edge="1">
          <mxGeometry width="50" height="50" relative="1" as="geometry">
            <mxPoint x="150" y="610" as="sourcePoint" />
            <mxPoint x="200" y="560" as="targetPoint" />
            <Array as="points">
              <mxPoint x="100" y="540" />
              <mxPoint x="190" y="540" />
            </Array>
          </mxGeometry>
        </mxCell>
        <mxCell id="SG0_FYimi-TdN1ou-3Z8-60" value="Combat&lt;div&gt;Sequence&lt;/div&gt;" style="rounded=0;whiteSpace=wrap;html=1;" parent="1" vertex="1">
          <mxGeometry x="-130" y="200" width="120" height="60" as="geometry" />
        </mxCell>
        <mxCell id="SG0_FYimi-TdN1ou-3Z8-61" value="Target exists&lt;div&gt;Condition&lt;/div&gt;" style="ellipse;whiteSpace=wrap;html=1;" parent="1" vertex="1">
          <mxGeometry x="-210" y="300" width="120" height="80" as="geometry" />
        </mxCell>
        <mxCell id="SG0_FYimi-TdN1ou-3Z8-64" value="" style="endArrow=classic;html=1;rounded=0;exitX=0.5;exitY=1;exitDx=0;exitDy=0;entryX=0.5;entryY=0;entryDx=0;entryDy=0;" parent="1" source="SG0_FYimi-TdN1ou-3Z8-60" target="SG0_FYimi-TdN1ou-3Z8-61" edge="1">
          <mxGeometry width="50" height="50" relative="1" as="geometry">
            <mxPoint x="90" y="360" as="sourcePoint" />
            <mxPoint x="140" y="310" as="targetPoint" />
            <Array as="points">
              <mxPoint x="-70" y="280" />
              <mxPoint x="-150" y="280" />
            </Array>
          </mxGeometry>
        </mxCell>
        <mxCell id="SG0_FYimi-TdN1ou-3Z8-65" value="" style="endArrow=classic;html=1;rounded=0;exitX=0.5;exitY=1;exitDx=0;exitDy=0;entryX=0.5;entryY=0;entryDx=0;entryDy=0;" parent="1" source="SG0_FYimi-TdN1ou-3Z8-60" target="SG0_FYimi-TdN1ou-3Z8-43" edge="1">
          <mxGeometry width="50" height="50" relative="1" as="geometry">
            <mxPoint x="100" y="350" as="sourcePoint" />
            <mxPoint x="150" y="300" as="targetPoint" />
            <Array as="points">
              <mxPoint x="-70" y="280" />
              <mxPoint y="280" />
            </Array>
          </mxGeometry>
        </mxCell>
        <mxCell id="SG0_FYimi-TdN1ou-3Z8-66" value="" style="endArrow=classic;html=1;rounded=0;exitX=0.5;exitY=1;exitDx=0;exitDy=0;entryX=0.5;entryY=0;entryDx=0;entryDy=0;" parent="1" source="SG0_FYimi-TdN1ou-3Z8-43" target="SG0_FYimi-TdN1ou-3Z8-44" edge="1">
          <mxGeometry width="50" height="50" relative="1" as="geometry">
            <mxPoint x="70" y="480" as="sourcePoint" />
            <mxPoint x="120" y="430" as="targetPoint" />
            <Array as="points">
              <mxPoint y="400" />
              <mxPoint x="-245" y="400" />
            </Array>
          </mxGeometry>
        </mxCell>
        <mxCell id="SG0_FYimi-TdN1ou-3Z8-67" value="" style="endArrow=classic;html=1;rounded=0;exitX=0.5;exitY=1;exitDx=0;exitDy=0;entryX=0.5;entryY=0;entryDx=0;entryDy=0;" parent="1" source="SG0_FYimi-TdN1ou-3Z8-43" target="SG0_FYimi-TdN1ou-3Z8-53" edge="1">
          <mxGeometry width="50" height="50" relative="1" as="geometry">
            <mxPoint x="120" y="490" as="sourcePoint" />
            <mxPoint x="170" y="440" as="targetPoint" />
            <Array as="points">
              <mxPoint y="400" />
              <mxPoint x="100" y="400" />
            </Array>
          </mxGeometry>
        </mxCell>
        <mxCell id="SG0_FYimi-TdN1ou-3Z8-68" value="" style="endArrow=classic;html=1;rounded=0;exitX=0.5;exitY=1;exitDx=0;exitDy=0;entryX=0.5;entryY=0;entryDx=0;entryDy=0;" parent="1" source="SG0_FYimi-TdN1ou-3Z8-1" target="SG0_FYimi-TdN1ou-3Z8-60" edge="1">
          <mxGeometry width="50" height="50" relative="1" as="geometry">
            <mxPoint x="280" y="360" as="sourcePoint" />
            <mxPoint x="330" y="310" as="targetPoint" />
            <Array as="points">
              <mxPoint x="380" y="170" />
              <mxPoint x="-70" y="170" />
            </Array>
          </mxGeometry>
        </mxCell>
        <mxCell id="SG0_FYimi-TdN1ou-3Z8-69" value="" style="endArrow=classic;html=1;rounded=0;exitX=0.5;exitY=1;exitDx=0;exitDy=0;entryX=0.536;entryY=-0.012;entryDx=0;entryDy=0;entryPerimeter=0;" parent="1" source="SG0_FYimi-TdN1ou-3Z8-1" target="SG0_FYimi-TdN1ou-3Z8-24" edge="1">
          <mxGeometry width="50" height="50" relative="1" as="geometry">
            <mxPoint x="480" y="280" as="sourcePoint" />
            <mxPoint x="530" y="230" as="targetPoint" />
            <Array as="points">
              <mxPoint x="380" y="170" />
            </Array>
          </mxGeometry>
        </mxCell>
        <mxCell id="UBOZVS8O-Bl-AyJwo6eO-1" value="Spawn&lt;div&gt;Sequence&lt;/div&gt;" style="rounded=0;whiteSpace=wrap;html=1;" vertex="1" parent="1">
          <mxGeometry x="-590" y="200" width="120" height="60" as="geometry" />
        </mxCell>
        <mxCell id="UBOZVS8O-Bl-AyJwo6eO-3" value="&lt;div&gt;&lt;span style=&quot;background-color: initial;&quot;&gt;Enemy Spawned&lt;/span&gt;&lt;/div&gt;&lt;div&gt;&lt;span style=&quot;background-color: initial;&quot;&gt;Condition&lt;/span&gt;&lt;br&gt;&lt;/div&gt;" style="ellipse;whiteSpace=wrap;html=1;" vertex="1" parent="1">
          <mxGeometry x="-690" y="320" width="120" height="90" as="geometry" />
        </mxCell>
        <mxCell id="UBOZVS8O-Bl-AyJwo6eO-4" value="Inverter" style="rhombus;whiteSpace=wrap;html=1;" vertex="1" parent="1">
          <mxGeometry x="-660" y="290" width="60" height="60" as="geometry" />
        </mxCell>
        <mxCell id="UBOZVS8O-Bl-AyJwo6eO-5" value="&lt;div&gt;Idle&lt;/div&gt;&lt;div&gt;Node&lt;/div&gt;" style="rounded=0;whiteSpace=wrap;html=1;" vertex="1" parent="1">
          <mxGeometry x="-500" y="335" width="120" height="60" as="geometry" />
        </mxCell>
        <mxCell id="UBOZVS8O-Bl-AyJwo6eO-6" value="" style="endArrow=classic;html=1;rounded=0;exitX=0.5;exitY=1;exitDx=0;exitDy=0;entryX=0.5;entryY=0;entryDx=0;entryDy=0;" edge="1" parent="1" source="UBOZVS8O-Bl-AyJwo6eO-1" target="UBOZVS8O-Bl-AyJwo6eO-4">
          <mxGeometry width="50" height="50" relative="1" as="geometry">
            <mxPoint x="-490" y="380" as="sourcePoint" />
            <mxPoint x="-440" y="330" as="targetPoint" />
            <Array as="points">
              <mxPoint x="-530" y="280" />
              <mxPoint x="-630" y="280" />
            </Array>
          </mxGeometry>
        </mxCell>
        <mxCell id="UBOZVS8O-Bl-AyJwo6eO-7" value="" style="endArrow=classic;html=1;rounded=0;exitX=0.5;exitY=1;exitDx=0;exitDy=0;entryX=0.5;entryY=0;entryDx=0;entryDy=0;" edge="1" parent="1" source="UBOZVS8O-Bl-AyJwo6eO-1" target="UBOZVS8O-Bl-AyJwo6eO-5">
          <mxGeometry width="50" height="50" relative="1" as="geometry">
            <mxPoint x="-490" y="380" as="sourcePoint" />
            <mxPoint x="-430" y="300" as="targetPoint" />
            <Array as="points">
              <mxPoint x="-530" y="280" />
              <mxPoint x="-440" y="280" />
            </Array>
          </mxGeometry>
        </mxCell>
        <mxCell id="UBOZVS8O-Bl-AyJwo6eO-8" value="" style="endArrow=classic;html=1;rounded=0;exitX=0.5;exitY=1;exitDx=0;exitDy=0;entryX=0.5;entryY=0;entryDx=0;entryDy=0;" edge="1" parent="1" source="SG0_FYimi-TdN1ou-3Z8-1" target="UBOZVS8O-Bl-AyJwo6eO-1">
          <mxGeometry width="50" height="50" relative="1" as="geometry">
            <mxPoint x="-230" y="320" as="sourcePoint" />
            <mxPoint x="-180" y="270" as="targetPoint" />
            <Array as="points">
              <mxPoint x="380" y="170" />
              <mxPoint x="-530" y="170" />
            </Array>
          </mxGeometry>
        </mxCell>
      </root>
    </mxGraphModel>
  </diagram>
</mxfile>
